<svg width="1024" height="1024" viewBox="0 0 1024 1024" fill="none" xmlns="http://www.w3.org/2000/svg">
<path d="M885.375 310.023C872.753 304.34 858.74 302.491 845.077 304.707C831.413 306.923 818.702 313.105 808.523 322.485L719.208 405.569V345.333C719.208 312.281 706.078 280.582 682.707 257.21C659.335 233.838 627.636 220.708 594.583 220.708H220.708C187.656 220.708 155.957 233.838 132.585 257.21C109.213 280.582 96.0833 312.281 96.0833 345.333V677.667C96.0833 710.719 109.213 742.418 132.585 765.79C155.957 789.161 187.656 802.292 220.708 802.292H594.583C627.636 802.292 659.335 789.161 682.707 765.79C706.078 742.418 719.208 710.719 719.208 677.667V617.431L808.938 700.514C822.148 712.472 839.309 719.129 857.127 719.208C867.015 719.185 876.785 717.061 885.791 712.977C898.043 708.021 908.54 699.524 915.939 688.573C923.339 677.621 927.305 664.712 927.332 651.495V371.504C927.272 358.24 923.244 345.296 915.767 334.34C908.29 323.383 897.705 314.914 885.375 310.023ZM636.125 677.667C636.125 688.684 631.748 699.25 623.958 707.041C616.167 714.832 605.601 719.208 594.583 719.208H220.708C209.691 719.208 199.125 714.832 191.334 707.041C183.543 699.25 179.167 688.684 179.167 677.667V345.333C179.167 334.316 183.543 323.749 191.334 315.959C199.125 308.168 209.691 303.792 220.708 303.792H594.583C605.601 303.792 616.167 308.168 623.958 315.959C631.748 323.749 636.125 334.316 636.125 345.333V677.667ZM843.833 619.508L727.101 511.5L843.833 403.492V619.508Z" fill="url(#paint0_linear_4_7)"/>
<path d="M528.208 655.167H276.792C272.029 655.167 267.461 657.059 264.093 660.426C260.725 663.794 258.833 668.362 258.833 673.125C258.833 677.888 260.725 682.456 264.093 685.823C267.461 689.191 272.029 691.083 276.792 691.083H528.208C532.971 691.083 537.539 689.191 540.907 685.823C544.275 682.456 546.167 677.888 546.167 673.125C546.167 668.362 544.275 663.794 540.907 660.426C537.539 657.059 532.971 655.167 528.208 655.167Z" fill="url(#paint1_linear_4_7)"/>
<path d="M276.791 619.25H278.408L353.294 612.426C361.497 611.609 369.17 607.995 375.024 602.19L536.649 440.565C542.922 433.938 546.312 425.094 546.076 415.971C545.841 406.849 541.998 398.192 535.391 391.898L486.186 342.692C479.764 336.66 471.348 333.198 462.54 332.967C453.733 332.735 445.147 335.749 438.416 341.435L276.791 503.06C270.987 508.914 267.372 516.586 266.555 524.789L258.833 599.676C258.591 602.306 258.933 604.957 259.833 607.441C260.733 609.924 262.17 612.178 264.041 614.042C265.719 615.707 267.709 617.024 269.897 617.917C272.085 618.811 274.428 619.264 276.791 619.25ZM461.224 367.834L510.25 416.86L474.333 451.879L426.205 403.75L461.224 367.834ZM301.394 527.842L402.5 427.455L450.987 475.943L350.421 576.509L296.546 581.538L301.394 527.842Z" fill="url(#paint2_linear_4_7)"/>
<defs>
<linearGradient id="paint0_linear_4_7" x1="511.708" y1="220.708" x2="511.708" y2="802.292" gradientUnits="userSpaceOnUse">
<stop offset="0.5" stop-color="white"/>
<stop offset="1" stop-color="#E6E6E6"/>
</linearGradient>
<linearGradient id="paint1_linear_4_7" x1="402.5" y1="655.167" x2="402.5" y2="691.083" gradientUnits="userSpaceOnUse">
<stop offset="0.5" stop-color="white"/>
<stop offset="1" stop-color="#E6E6E6"/>
</linearGradient>
<linearGradient id="paint2_linear_4_7" x1="402.423" y1="332.954" x2="402.423" y2="619.251" gradientUnits="userSpaceOnUse">
<stop offset="0.5" stop-color="white"/>
<stop offset="1" stop-color="#E6E6E6"/>
</linearGradient>
</defs>
</svg>
